<?xml version="1.0" standalone="no"?>
<!DOCTYPE svg PUBLIC "-//W3C//DTD SVG 20010904//EN"
 "http://www.w3.org/TR/2001/REC-SVG-20010904/DTD/svg10.dtd">
<svg version="1.0" xmlns="http://www.w3.org/2000/svg"
 width="600.000000pt" height="600.000000pt" viewBox="0 0 600.000000 600.000000"
 preserveAspectRatio="xMidYMid meet">
<metadata>
Created by potrace 1.11, written by Peter Selinger 2001-2013
</metadata>
<g transform="translate(0.000000,600.000000) scale(0.100000,-0.100000)"
fill="#000000" stroke="none">
<path d="M1274 5641 c3 -5 16 -11 28 -15 68 -17 943 -395 944 -407 0 -8 2 -23
2 -33 1 -14 5 -17 12 -10 9 9 8 25 -15 144 -3 14 -7 37 -11 53 -4 21 -2 27 11
27 12 0 15 5 11 16 -3 9 -6 20 -6 25 0 4 -6 6 -14 3 -8 -3 -16 3 -19 15 -4 18
-2 20 21 14 21 -5 24 -3 19 11 -4 10 -7 22 -7 28 0 6 -6 8 -13 5 -16 -6 -41
20 -27 28 14 9 12 31 -4 47 -8 8 -16 23 -18 34 -3 18 -18 19 -461 22 -270 1
-456 -2 -453 -7z"/>
<path d="M2266 5418 c8 -29 10 -31 23 -23 8 4 8 12 1 26 -15 27 -33 24 -24 -3z"/>
<path d="M2257 5340 c6 -24 19 -34 27 -21 9 14 -4 41 -19 41 -8 0 -11 -8 -8
-20z"/>
<path d="M2306 5352 c-7 -12 3 -42 14 -42 16 0 19 17 6 35 -8 11 -15 14 -20 7z"/>
<path d="M2280 5268 c0 -7 4 -19 9 -27 11 -17 25 3 17 24 -7 18 -26 20 -26 3z"/>
<path d="M2340 5268 c0 -7 4 -19 9 -27 11 -17 25 3 17 24 -7 18 -26 20 -26 3z"/>
<path d="M2376 5202 c-2 -4 1 -18 8 -31 8 -15 16 -20 20 -13 4 7 2 21 -4 32
-12 22 -16 24 -24 12z"/>
<path d="M2306 5191 c-7 -11 20 -48 29 -39 9 8 -4 48 -15 48 -5 0 -11 -4 -14
-9z"/>
<path d="M2260 5115 c0 -16 6 -25 16 -25 11 0 14 5 10 16 -3 9 -6 20 -6 25 0
5 -4 9 -10 9 -5 0 -10 -11 -10 -25z"/>
<path d="M2416 5122 c-7 -12 3 -42 14 -42 16 0 19 17 6 35 -8 11 -15 14 -20 7z"/>
<path d="M2338 5115 c-10 -10 4 -45 18 -45 8 0 14 4 14 8 0 14 -25 43 -32 37z"/>
<path d="M2275 5033 c2 -10 4 -22 4 -27 1 -5 7 -3 15 4 8 6 12 18 9 26 -8 20
-32 17 -28 -3z"/>
<path d="M2450 5041 c0 -22 13 -39 26 -34 10 4 11 10 3 24 -10 20 -29 26 -29
10z"/>
<path d="M2366 5031 c-8 -12 3 -41 15 -41 12 0 12 37 0 45 -5 3 -12 1 -15 -4z"/>
<path d="M2493 4968 c-8 -10 -8 -18 2 -31 16 -22 28 -7 17 23 -7 18 -10 19
-19 8z"/>
<path d="M2295 4957 c-4 -10 -3 -23 4 -30 16 -16 26 0 14 25 -10 21 -11 22
-18 5z"/>
<path d="M2390 4931 c0 -12 6 -21 16 -21 9 0 14 7 12 17 -5 25 -28 28 -28 4z"/>
<path d="M2520 4881 c0 -11 29 -35 35 -29 10 9 -7 38 -21 38 -8 0 -14 -4 -14
-9z"/>
<path d="M2310 4855 c0 -18 4 -23 15 -19 17 7 17 7 9 28 -9 24 -24 19 -24 -9z"/>
<path d="M2416 4861 c-7 -11 20 -48 29 -39 9 8 -4 48 -15 48 -5 0 -11 -4 -14
-9z"/>
<path d="M2568 4815 c-10 -10 4 -45 18 -45 8 0 14 4 14 8 0 14 -25 43 -32 37z"/>
<path d="M2332 4792 c-7 -5 -10 -16 -6 -25 9 -25 24 -20 24 8 0 28 0 28 -18
17z"/>
<path d="M2443 4776 c4 -10 7 -22 7 -27 0 -5 7 -9 15 -9 18 0 5 42 -15 48 -9
3 -11 -1 -7 -12z"/>
<path d="M2606 4732 c-7 -12 3 -42 14 -42 16 0 19 17 6 35 -8 11 -15 14 -20 7z"/>
<path d="M2340 4698 c0 -7 4 -19 9 -27 11 -17 25 3 17 24 -7 18 -26 20 -26 3z"/>
<path d="M2475 4697 c-4 -10 -3 -23 4 -30 16 -16 26 0 14 25 -10 21 -11 22
-18 5z"/>
<path d="M2640 4648 c0 -19 18 -43 25 -36 9 9 -4 48 -16 48 -5 0 -9 -6 -9 -12z"/>
<path d="M2358 4624 c-10 -9 4 -44 17 -44 8 0 10 9 7 25 -4 24 -13 31 -24 19z"/>
<path d="M2500 4608 c0 -18 5 -28 15 -28 19 0 19 11 0 36 -14 18 -14 18 -15
-8z"/>
<path d="M2677 4574 c-9 -9 12 -46 23 -39 4 3 6 14 3 25 -5 20 -15 25 -26 14z"/>
<path d="M2370 4528 c0 -7 4 -19 9 -27 11 -17 25 3 17 24 -7 18 -26 20 -26 3z"/>
<path d="M2524 4524 c3 -9 6 -20 6 -25 0 -4 7 -6 15 -3 11 5 12 11 4 25 -12
23 -34 26 -25 3z"/>
<path d="M2710 4494 c0 -14 22 -44 30 -39 13 8 0 45 -16 45 -8 0 -14 -3 -14
-6z"/>
<path d="M2392 4436 c1 -14 8 -26 16 -26 17 0 12 42 -5 48 -9 2 -12 -5 -11
-22z"/>
<path d="M2550 4452 c0 -19 12 -42 22 -42 14 0 5 43 -9 48 -7 2 -13 -1 -13 -6z"/>
<path d="M2756 4422 c-9 -15 4 -42 20 -42 12 0 13 4 3 23 -16 29 -16 30 -23
19z"/>
<path d="M2580 4361 c0 -20 17 -37 27 -28 7 8 -7 47 -18 47 -5 0 -9 -9 -9 -19z"/>
<path d="M2407 4350 c3 -11 11 -20 18 -20 8 0 11 8 8 20 -3 11 -11 20 -18 20
-8 0 -11 -8 -8 -20z"/>
<path d="M2787 4344 c-3 -4 -2 -16 4 -26 13 -24 33 -10 23 15 -6 18 -16 21
-27 11z"/>
<path d="M2614 4294 c-15 -6 -6 -44 11 -44 8 0 10 9 7 25 -2 14 -5 25 -6 24 0
0 -6 -3 -12 -5z"/>
<path d="M2423 4269 c2 -13 9 -25 16 -27 8 -3 12 4 9 19 -1 12 -9 24 -16 27
-8 2 -11 -4 -9 -19z"/>
<path d="M2827 4264 c-3 -4 -2 -16 4 -26 13 -24 33 -10 23 15 -6 18 -16 21
-27 11z"/>
<path d="M2635 4207 c-4 -10 -3 -23 4 -30 16 -16 26 0 14 25 -10 21 -11 22
-18 5z"/>
<path d="M2445 4198 c-10 -26 2 -55 17 -40 8 8 8 18 1 34 -10 21 -12 21 -18 6z"/>
<path d="M2860 4184 c0 -15 22 -44 31 -39 11 7 -7 45 -21 45 -6 0 -10 -3 -10
-6z"/>
<path d="M2660 4118 c0 -7 4 -19 9 -27 11 -17 25 3 17 24 -7 18 -26 20 -26 3z"/>
<path d="M2458 4108 c-7 -19 2 -38 16 -38 9 0 12 9 8 25 -5 27 -17 33 -24 13z"/>
<path d="M2904 4107 c-7 -20 8 -42 24 -36 7 3 6 13 -3 29 -12 23 -14 23 -21 7z"/>
<path d="M2688 4044 c-9 -8 3 -45 14 -42 5 2 9 7 9 11 -1 4 -1 14 -1 22 0 15
-12 20 -22 9z"/>
<path d="M2943 4032 c-10 -7 -10 -12 1 -28 18 -23 33 -12 20 16 -6 12 -14 17
-21 12z"/>
<path d="M2473 4011 c1 -12 7 -21 15 -21 16 0 12 32 -5 37 -7 3 -11 -4 -10
-16z"/>
<path d="M2716 3961 c-9 -14 4 -41 19 -41 8 0 11 8 8 20 -6 24 -19 34 -27 21z"/>
<path d="M2977 3953 c-4 -6 0 -18 7 -28 8 -11 16 -14 19 -8 4 6 0 18 -7 28 -8
11 -16 14 -19 8z"/>
<path d="M2490 3931 c0 -20 17 -37 27 -28 7 8 -7 47 -18 47 -5 0 -9 -9 -9 -19z"/>
<path d="M2745 3877 c-4 -10 -3 -23 4 -30 16 -16 26 0 14 25 -10 21 -11 22
-18 5z"/>
<path d="M3010 3871 c0 -22 13 -39 26 -34 10 4 11 10 3 24 -10 20 -29 26 -29
10z"/>
<path d="M2504 3844 c3 -9 6 -18 6 -20 0 -2 6 -4 14 -4 9 0 12 7 9 20 -3 11
-12 20 -20 20 -10 0 -13 -6 -9 -16z"/>
<path d="M3055 3798 c-4 -9 -2 -25 3 -35 10 -17 11 -17 17 -1 4 9 2 25 -3 35
-10 17 -11 17 -17 1z"/>
<path d="M2767 3780 c3 -11 12 -20 20 -20 10 0 13 6 9 16 -3 9 -6 18 -6 20 0
2 -6 4 -14 4 -9 0 -12 -7 -9 -20z"/>
<path d="M2522 3759 c1 -12 9 -24 16 -27 8 -2 11 4 9 19 -2 13 -9 25 -16 27
-8 3 -12 -4 -9 -19z"/>
<path d="M2794 3704 c3 -9 6 -20 6 -25 0 -4 6 -6 14 -3 18 7 9 44 -11 44 -10
0 -13 -6 -9 -16z"/>
<path d="M3090 3700 c13 -24 35 -27 26 -4 -3 9 -6 18 -6 20 0 2 -7 4 -15 4
-13 0 -14 -4 -5 -20z"/>
<path d="M2547 3694 c-13 -13 -7 -44 8 -44 16 0 17 5 6 33 -3 10 -10 15 -14
11z"/>
<path d="M3128 3644 c-11 -10 4 -44 19 -44 10 0 13 6 9 16 -3 9 -6 20 -6 25 0
10 -14 12 -22 3z"/>
<path d="M2820 3632 c0 -19 12 -42 22 -42 14 0 5 43 -9 48 -7 2 -13 -1 -13 -6z"/>
<path d="M2556 3601 c-8 -12 3 -41 15 -41 5 0 9 11 9 25 0 25 -14 34 -24 16z"/>
<path d="M3162 3552 c2 -11 -3 -26 -10 -35 -20 -24 4 -31 28 -7 17 17 18 23 8
40 -16 25 -30 26 -26 2z"/>
<path d="M2850 3541 c0 -19 17 -38 25 -29 7 7 -7 48 -16 48 -5 0 -9 -9 -9 -19z"/>
<path d="M2575 3517 c-4 -10 -3 -23 4 -30 16 -16 26 0 14 25 -10 21 -11 22
-18 5z"/>
<path d="M3204 3493 c-16 -5 -5 -43 12 -43 15 0 16 6 6 31 -4 9 -12 14 -18 12z"/>
<path d="M2882 3472 c-15 -10 -5 -42 13 -42 8 0 10 9 7 25 -2 14 -5 25 -6 25
0 0 -7 -4 -14 -8z"/>
<path d="M3081 3471 c-22 -14 -4 -33 20 -21 11 6 17 15 14 21 -8 11 -16 11
-34 0z"/>
<path d="M2588 3415 c2 -14 8 -25 13 -25 5 0 9 11 9 25 0 14 -6 25 -14 25 -9
0 -12 -8 -8 -25z"/>
<path d="M3015 3426 c-15 -11 -17 -18 -9 -26 8 -8 14 -7 23 4 20 24 9 39 -14
22z"/>
<path d="M3238 3415 c-10 -10 4 -45 18 -45 8 0 14 4 14 8 0 14 -25 43 -32 37z"/>
<path d="M2620 3374 c0 -8 11 -14 26 -14 16 0 24 5 22 13 -6 17 -48 18 -48 1z"/>
<path d="M2900 3374 c0 -8 -4 -12 -10 -9 -5 3 -10 0 -10 -8 0 -8 8 -17 18 -21
9 -3 23 -9 30 -12 7 -3 12 1 12 10 0 9 7 19 15 22 8 4 15 12 15 20 0 17 -12
18 -27 3 -8 -8 -13 -8 -17 0 -10 16 -26 13 -26 -5z"/>
<path d="M2710 3364 c0 -9 7 -14 17 -12 25 5 28 28 4 28 -12 0 -21 -6 -21 -16z"/>
<path d="M2790 3361 c0 -5 11 -11 25 -13 17 -4 25 -1 25 8 0 8 -11 14 -25 14
-14 0 -25 -4 -25 -9z"/>
<path d="M2608 3325 c2 -14 8 -25 13 -25 5 0 9 11 9 25 0 14 -6 25 -14 25 -9
0 -12 -8 -8 -25z"/>
<path d="M3270 3328 c0 -22 17 -41 29 -34 8 5 8 13 1 27 -12 21 -30 26 -30 7z"/>
<path d="M2938 3284 c-11 -10 4 -44 19 -44 10 0 13 6 9 16 -3 9 -6 20 -6 25 0
10 -14 12 -22 3z"/>
<path d="M2625 3257 c-4 -10 -3 -23 4 -30 16 -16 26 0 14 25 -10 21 -11 22
-18 5z"/>
<path d="M3310 3251 c0 -22 13 -39 25 -34 11 4 12 9 2 24 -12 20 -27 25 -27
10z"/>
<path d="M2966 3202 c-9 -15 4 -42 20 -42 12 0 13 4 3 23 -16 29 -16 30 -23
19z"/>
<path d="M2637 3173 c-7 -12 7 -38 22 -41 9 -2 11 3 7 13 -3 9 -6 21 -6 26 0
11 -17 12 -23 2z"/>
<path d="M3347 3160 c3 -11 12 -20 20 -20 10 0 13 6 9 16 -3 9 -6 18 -6 20 0
2 -6 4 -14 4 -9 0 -12 -7 -9 -20z"/>
<path d="M3010 3156 c0 -3 16 -51 35 -107 38 -113 42 -133 21 -103 -17 23 -27
16 -19 -14 4 -15 11 -21 22 -17 14 4 30 -35 96 -235 43 -132 80 -240 82 -240
3 0 44 33 91 74 83 70 114 98 173 153 22 21 31 23 48 14 17 -9 22 -8 31 8 14
27 -7 39 -25 15 -14 -18 -14 -18 -15 -1 0 14 -103 233 -115 246 -2 1 -21 5
-42 7 -83 7 -117 24 -190 93 -40 38 -92 78 -117 90 -42 19 -76 27 -76 17z"/>
<path d="M2936 3110 c-14 -17 -27 -40 -27 -51 -1 -10 -2 -25 -3 -31 -1 -7 4
-35 12 -63 28 -94 30 -118 10 -157 -10 -20 -27 -39 -37 -43 -32 -10 -71 -63
-71 -97 0 -16 -9 -42 -20 -57 -17 -25 -18 -33 -7 -77 10 -41 16 -50 37 -52 14
-2 30 -8 35 -14 7 -6 3 -9 -10 -6 -14 2 -19 -2 -17 -13 2 -12 -4 -15 -21 -12
-24 5 -25 3 -262 -244 -128 -135 -126 -129 -63 -146 29 -8 95 -25 145 -37 l93
-22 87 75 c49 42 102 88 118 102 17 14 78 67 137 118 118 100 117 98 22 112
-45 6 -51 9 -47 26 4 14 0 19 -15 19 -12 0 -24 -4 -27 -10 -3 -5 1 -10 9 -10
9 0 16 -4 16 -8 0 -4 -42 -1 -92 7 -51 9 -85 17 -75 19 9 2 17 10 17 18 0 16
10 17 76 5 27 -5 74 -12 104 -16 54 -7 80 -15 47 -15 -9 0 -17 -7 -17 -15 0
-9 9 -15 24 -15 19 0 23 4 19 19 -4 17 -1 19 31 11 20 -4 36 -4 36 0 0 4 -41
130 -90 281 -80 240 -89 275 -75 285 17 13 10 44 -10 44 -8 0 -12 -9 -9 -22 2
-13 -7 8 -21 46 -13 38 -26 71 -29 73 -2 2 -15 -10 -30 -27z"/>
<path d="M2995 3118 c-4 -9 -2 -25 3 -35 10 -17 11 -17 17 -1 4 9 2 25 -3 35
-10 17 -11 17 -17 1z"/>
<path d="M2656 3091 c-8 -12 3 -41 15 -41 12 0 12 37 0 45 -5 3 -12 1 -15 -4z"/>
<path d="M3384 3084 c3 -9 6 -18 6 -20 0 -2 7 -4 16 -4 11 0 14 5 10 16 -3 9
-6 18 -6 20 0 2 -7 4 -16 4 -11 0 -14 -5 -10 -16z"/>
<path d="M3426 3022 c-7 -12 3 -42 14 -42 16 0 19 17 6 35 -8 11 -15 14 -20 7z"/>
<path d="M2670 2991 c0 -22 16 -36 24 -22 8 12 -3 41 -15 41 -5 0 -9 -9 -9
-19z"/>
<path d="M3460 2938 c0 -19 18 -43 25 -36 9 9 -4 48 -16 48 -5 0 -9 -6 -9 -12z"/>
<path d="M2694 2924 c-15 -6 -6 -44 11 -44 8 0 10 9 7 25 -2 14 -5 25 -6 24 0
0 -6 -3 -12 -5z"/>
<path d="M3076 2872 c-8 -13 3 -42 15 -42 11 0 11 21 0 39 -5 8 -11 9 -15 3z"/>
<path d="M3500 2858 c0 -7 4 -19 9 -27 11 -17 23 1 15 23 -7 19 -24 21 -24 4z"/>
<path d="M2704 2824 c3 -9 6 -21 6 -27 0 -8 3 -8 11 0 13 13 5 43 -12 43 -6 0
-8 -7 -5 -16z"/>
<path d="M3107 2794 c-13 -13 -7 -44 8 -44 16 0 17 5 6 33 -3 10 -10 15 -14
11z"/>
<path d="M3534 2774 c3 -9 6 -18 6 -20 0 -2 7 -4 16 -4 11 0 14 5 10 16 -3 9
-6 18 -6 20 0 2 -7 4 -16 4 -11 0 -14 -5 -10 -16z"/>
<path d="M2720 2735 c0 -16 6 -25 16 -25 11 0 14 5 10 16 -3 9 -6 20 -6 25 0
5 -4 9 -10 9 -5 0 -10 -11 -10 -25z"/>
<path d="M3124 2694 c3 -9 6 -18 6 -20 0 -2 6 -4 14 -4 9 0 12 7 9 20 -3 11
-12 20 -20 20 -10 0 -13 -6 -9 -16z"/>
<path d="M2734 2654 c3 -9 6 -20 6 -25 0 -4 6 -6 14 -3 18 7 9 44 -11 44 -10
0 -13 -6 -9 -16z"/>
<path d="M3500 2645 c-7 -8 -10 -19 -6 -22 9 -9 38 8 38 22 -1 16 -18 16 -32
0z"/>
<path d="M3558 2653 c-1 -5 -48 -47 -103 -95 -55 -47 -121 -106 -148 -130
l-47 -43 86 -258 c62 -186 89 -256 97 -249 7 5 94 71 194 146 l182 138 -20 41
c-22 42 -141 289 -190 395 -28 57 -42 73 -51 55z"/>
<path d="M3150 2623 c0 -5 7 -18 15 -29 15 -18 15 -18 13 5 -3 23 -28 44 -28
24z"/>
<path d="M3431 2586 c-9 -10 -9 -16 -1 -21 13 -8 42 14 34 26 -8 13 -20 11
-33 -5z"/>
<path d="M2755 2577 c-4 -10 -3 -23 4 -30 16 -16 26 0 14 25 -10 21 -11 22
-18 5z"/>
<path d="M3180 2531 c0 -20 17 -37 27 -28 7 8 -7 47 -18 47 -5 0 -9 -9 -9 -19z"/>
<path d="M3371 2531 c-7 -5 -10 -14 -6 -20 5 -9 10 -9 21 0 26 22 14 38 -15
20z"/>
<path d="M2767 2480 c6 -24 19 -34 27 -21 9 14 -4 41 -19 41 -8 0 -11 -8 -8
-20z"/>
<path d="M3308 2477 c-10 -8 -13 -18 -9 -26 6 -10 12 -9 25 4 9 9 14 21 11 26
-7 11 -6 11 -27 -4z"/>
<path d="M3208 2464 c-10 -9 4 -44 17 -44 8 0 10 9 7 25 -4 24 -13 31 -24 19z"/>
<path d="M2920 2444 c0 -8 11 -14 25 -14 14 0 25 4 25 9 0 5 -11 11 -25 13
-17 4 -25 1 -25 -8z"/>
<path d="M3245 2419 c-4 -6 -21 -9 -38 -7 -19 2 -32 -2 -35 -10 -3 -10 7 -12
44 -8 27 2 50 5 52 5 1 1 2 8 2 16 0 17 -16 20 -25 4z"/>
<path d="M3189 2327 c-20 -18 -79 -68 -130 -112 -107 -91 -147 -126 -163 -140
-6 -5 -39 -34 -72 -62 l-61 -53 8 -42 c4 -24 17 -86 29 -138 25 -111 24 -107
40 -187 7 -35 16 -63 21 -63 4 0 97 53 206 118 109 65 224 133 256 151 32 18
60 38 63 45 2 6 -33 124 -78 263 l-83 252 -36 -32z"/>
<path d="M3650 1979 c-102 -76 -189 -145 -194 -152 -5 -8 3 -47 22 -102 16
-50 65 -196 107 -325 43 -129 79 -236 80 -238 2 -2 471 292 483 303 3 3 -49
112 -199 424 -55 112 -99 207 -99 212 0 25 -33 5 -200 -122z"/>
<path d="M2357 1980 c-23 -25 -87 -94 -142 -154 -55 -60 -111 -121 -125 -136
-20 -20 -146 -159 -205 -224 -40 -44 -40 -43 45 -71 l80 -27 248 213 c301 260
416 361 420 369 1 3 -61 22 -138 41 l-141 35 -42 -46z"/>
<path d="M2650 1863 c-96 -83 -164 -142 -265 -228 -49 -42 -101 -87 -115 -99
-14 -13 -72 -63 -130 -112 l-106 -89 39 -123 c22 -67 43 -122 48 -122 8 0 341
195 419 245 19 12 88 53 153 91 109 63 118 71 113 94 -39 178 -49 227 -63 295
-8 44 -19 86 -22 92 -4 9 -28 -6 -71 -44z"/>
<path d="M3335 1757 c-39 -23 -134 -80 -212 -126 -78 -46 -140 -89 -137 -95 2
-6 6 -22 8 -36 3 -14 14 -71 24 -128 11 -57 24 -107 28 -111 7 -7 114 -29 174
-36 8 -1 44 -8 80 -15 36 -7 74 -14 85 -16 11 -2 36 -6 55 -10 158 -28 181
-31 177 -20 -2 6 -50 152 -106 324 -56 171 -103 312 -104 311 -1 0 -34 -19
-72 -42z"/>
<path d="M3920 1270 c-201 -129 -235 -154 -232 -173 1 -12 55 -183 120 -380
l118 -358 158 159 c246 249 346 354 346 363 0 5 -4 17 -10 27 -9 15 -186 384
-228 474 -9 21 -21 38 -27 38 -5 0 -116 -68 -245 -150z"/>
<path d="M1738 1307 c-40 -44 -82 -90 -93 -101 -11 -12 -63 -68 -115 -126 -52
-57 -104 -114 -115 -125 -11 -11 -67 -72 -125 -135 -57 -63 -111 -122 -120
-131 -28 -29 -113 -124 -139 -154 l-26 -30 30 25 c17 14 35 29 40 35 6 5 37
32 70 60 33 27 62 52 65 55 3 3 68 60 145 125 77 66 142 122 145 125 3 3 34
30 70 60 36 30 70 60 76 65 6 6 81 71 168 145 l156 135 -37 13 c-21 8 -57 19
-80 27 l-42 13 -73 -81z"/>
<path d="M1855 1179 c-192 -165 -236 -203 -249 -214 -6 -6 -76 -66 -156 -135
-360 -309 -427 -367 -465 -404 -28 -27 -32 -34 -14 -23 15 9 100 60 190 113
90 53 259 153 374 222 358 213 429 254 473 280 24 14 46 30 48 37 3 7 -4 44
-15 81 -11 38 -25 88 -31 112 -6 23 -14 42 -18 42 -4 0 -66 -50 -137 -111z"/>
<path d="M3056 1183 c4 -26 41 -218 49 -253 1 -8 6 -35 11 -60 4 -25 8 -47 9
-50 1 -3 5 -25 9 -50 5 -25 10 -54 13 -65 2 -11 6 -31 9 -45 2 -14 7 -36 10
-50 3 -14 8 -38 11 -55 3 -16 6 -31 6 -31 6 -6 691 -173 694 -170 6 5 -235
738 -245 748 -4 3 -20 9 -37 11 -43 7 -205 36 -235 42 -21 4 -178 33 -282 51
-25 5 -26 3 -22 -23z"/>
<path d="M4440 967 c0 -7 9 -26 20 -44 l19 -32 133 -1 c73 -1 151 -1 173 -1
96 -1 93 5 -15 27 -63 12 -126 25 -140 27 -33 6 -139 26 -167 31 -14 3 -23 0
-23 -7z"/>
<path d="M4392 772 c-40 -42 -141 -146 -224 -229 -84 -84 -148 -153 -144 -153
7 0 153 61 241 100 22 10 69 30 105 45 36 15 83 35 105 45 22 10 105 46 185
80 80 34 163 70 185 80 22 9 80 34 128 55 48 21 86 39 84 41 -1 2 -135 5 -297
8 l-295 5 -73 -77z"/>
</g>
</svg>
