<?xml version="1.0" encoding="utf-8"?>
<!-- Generator: Adobe Illustrator 23.0.4, SVG Export Plug-In . SVG Version: 6.00 Build 0)  -->
<svg version="1.1" id="Layer_1" xmlns="http://www.w3.org/2000/svg" xmlns:xlink="http://www.w3.org/1999/xlink" x="0px" y="0px"
	 viewBox="0 0 64 64" style="enable-background:new 0 0 64 64;" xml:space="preserve">
<style type="text/css">
	.st0{fill:#004750;}
</style>
<path class="st0" d="M32,1.85c-2.84,0-5.58,0.4-8.19,1.12C23.75,2.98,23.69,2.98,23.64,3c-0.14,0.04-0.28,0.09-0.42,0.14
	c-0.36,0.11-0.72,0.22-1.07,0.34c-0.55,0.18-1.09,0.39-1.62,0.6c-0.2,0.08-0.41,0.16-0.61,0.25c-0.38,0.16-0.76,0.33-1.13,0.51
	c-0.13,0.06-0.26,0.13-0.38,0.19c-0.65,0.32-1.29,0.67-1.91,1.04c-0.2,0.12-0.4,0.23-0.6,0.36C15.59,6.62,15.3,6.81,15,7
	c-0.46,0.31-0.92,0.63-1.37,0.97c-0.12,0.09-0.24,0.19-0.35,0.28c-0.49,0.38-0.97,0.77-1.43,1.18c-0.02,0.02-0.05,0.04-0.08,0.07
	C5.37,15.12,1.32,23.35,1.32,32.52c0,13.85,9.33,26.04,22.69,29.63c0,0,0.46-3.01,0.46-3.02c-0.06-1.65-0.02-3.3-0.02-5.08
	c-0.76,0.08-1.39,0.23-2.01,0.2c-1.48-0.06-2.98-0.04-4.42-0.34c-1.82-0.38-3.09-1.58-3.83-3.32c-0.83-1.95-1.85-3.77-3.78-4.88
	c-0.23-0.13-0.42-0.34-0.58-0.55c-0.36-0.47-0.26-0.82,0.34-0.95c1.16-0.26,2.28-0.06,3.17,0.67c0.87,0.72,1.7,1.56,2.33,2.49
	c1.98,2.94,4.78,3.94,8.09,2.67c0.34-0.13,0.66-0.52,0.82-0.87c0.51-1.12,0.95-2.27,1.43-3.46c-0.94-0.19-2.08-0.38-3.2-0.65
	c-6.27-1.54-9.6-5.6-10.16-12.05c-0.33-3.76,0.22-7.2,2.7-10.19c0.18-0.22,0.18-0.69,0.09-1.01c-0.59-2.26-0.42-4.48,0.28-6.69
	c0.19-0.59,0.48-0.8,1.08-0.76c2.16,0.13,4.09,0.99,5.83,2.14c1.2,0.8,2.27,0.91,3.66,0.61c4.15-0.89,8.32-0.76,12.47,0.19
	c0.48,0.11,1.09-0.07,1.58-0.27c1.98-0.83,3.89-1.85,5.92-2.55c1.49-0.51,1.74-0.22,2.16,1.33c0.54,2,0.6,3.99,0.08,6.01
	c-0.09,0.35,0,0.9,0.22,1.16c4.3,4.84,2.8,14.19-0.29,17.82c-2.41,2.82-5.61,4-9.11,4.62c-0.53,0.09-1.06,0.17-1.75,0.28
	c2.04,2.16,2,4.76,1.96,7.38c-0.03,2,0.01,3.99-0.05,5.99c0,0.03,0.46,3.08,0.46,3.08c13.37-3.59,22.7-15.77,22.7-29.63
	C62.68,15.61,48.92,1.85,32,1.85z"/>
</svg>
