<?xml version="1.0" encoding="utf-8"?>
<!-- Generator: Adobe Illustrator 23.0.4, SVG Export Plug-In . SVG Version: 6.00 Build 0)  -->
<svg version="1.1" id="Layer_1" xmlns="http://www.w3.org/2000/svg" xmlns:xlink="http://www.w3.org/1999/xlink" x="0px" y="0px"
	 viewBox="0 0 48.05 64" style="enable-background:new 0 0 48.05 64;" xml:space="preserve">
<style type="text/css">
	.st0{fill:#004750;}
</style>
<g>
	<path class="st0" d="M20.76,9.7c-1.67-0.01-3.34,0-5.01,0c-1.3,0-1.73,0.44-1.73,1.74c0,16.45,0,32.91-0.01,49.36
		c0,0.78,0.22,1.36,0.9,1.76c2.18,0,4.37,0,6.55,0c0.83-0.35,0.96-1.02,0.96-1.83c-0.01-16.16-0.01-32.31-0.01-48.47
		c0-0.26-0.01-0.51,0.01-0.77C22.5,10.24,22.01,9.7,20.76,9.7z M19.85,59.14c0,0.25,0,0.51,0,0.83c-1.12,0-2.14,0-3.2,0
		c0-15.88,0-31.74,0-47.7c0.97,0,1.94-0.01,2.92,0.01c0.09,0,0.24,0.16,0.26,0.28c0.05,0.18,0.02,0.38,0.02,0.57
		C19.85,28.47,19.85,43.81,19.85,59.14z"/>
	<path class="st0" d="M34.05,11.31c0-1.1-0.49-1.61-1.61-1.61c-1.71-0.01-3.42-0.01-5.13,0c-1.23,0-1.66,0.43-1.66,1.67
		c0,16.52,0,33.03-0.01,49.55c0,0.77,0.24,1.33,0.96,1.64c2.18,0,4.37,0,6.55,0c0.68-0.39,0.9-0.98,0.9-1.76
		c-0.02-5.76-0.01-11.51-0.01-17.27C34.04,32.79,34.04,22.05,34.05,11.31z M31.42,59.97c-1.06,0-2.08,0-3.17,0
		c-0.01-0.24-0.03-0.47-0.03-0.69c0-15.42,0-30.84-0.01-46.26c0-0.57,0.12-0.8,0.74-0.76c0.8,0.05,1.62,0.01,2.47,0.01
		C31.42,28.19,31.42,44.04,31.42,59.97z"/>
	<path class="st0" d="M9.91,1.44c-2.18,0-4.37,0-6.55,0C2.7,1.78,2.44,2.29,2.44,3.04C2.45,15.06,2.45,27.08,2.45,39.1
		c0,1.15,0.45,1.6,1.59,1.61c1.67,0.01,3.34,0,5,0c1.39,0,1.78-0.39,1.78-1.8c0-11.95,0-23.91,0.01-35.86
		C10.83,2.28,10.56,1.78,9.91,1.44z M8.21,38.1c-1.05,0-2.08,0-3.15,0c0-11.35,0-22.68,0-34.06c1.08,0,2.1,0,3.15,0
		C8.21,15.39,8.21,26.72,8.21,38.1z"/>
	<path class="st0" d="M45.61,11.2c0-1.02-0.47-1.51-1.48-1.52c-1.8-0.01-3.59-0.01-5.39,0c-1.02,0.01-1.49,0.49-1.49,1.51
		c0,9.35,0,18.7,0,28.05c0,1.04,0.45,1.49,1.48,1.5c1.73,0.01,3.47,0,5.2,0c1.29,0,1.68-0.4,1.68-1.68c0-4.6,0-9.2,0-13.8
		C45.61,20.57,45.61,15.89,45.61,11.2z M43,38.15c-1.05,0-2.07,0-3.14,0c0-8.6,0-17.2,0-25.85c1.03,0,2.07,0,3.14,0
		C43,20.9,43,29.49,43,38.15z"/>
</g>
</svg>
