<svg xmlns="http://www.w3.org/2000/svg" width="28.862" height="40.057" viewBox="0 0 28.862 40.057"><g transform="translate(-1279.259 -1051.83)"><path d="M1293.755,1051.83a14.4,14.4,0,0,1,14.263,12.407,13.391,13.391,0,0,1-.914,6.679,58.006,58.006,0,0,1-5.159,9.9c-2.251,3.619-4.7,7.08-7.251,10.488a1.109,1.109,0,0,1-1.894.1,117.721,117.721,0,0,1-10.766-16.58,29.226,29.226,0,0,1-2.452-6.2,11.858,11.858,0,0,1,.606-7.3,14.206,14.206,0,0,1,11.551-9.317C1292.411,1051.882,1293.076,1051.882,1293.755,1051.83Zm0,3.358a11.185,11.185,0,1,0,11.163,11.139A11.2,11.2,0,0,0,1293.755,1055.188Z" fill-rule="evenodd"/><path d="M1293.775,1072.584a6.257,6.257,0,1,1,6.243-6.333A6.255,6.255,0,0,1,1293.775,1072.584Z" fill-rule="evenodd"/></g></svg>