<svg xmlns="http://www.w3.org/2000/svg" width="39.598" height="25.279" viewBox="0 0 39.598 25.279"><g transform="translate(-1273.891 -962.923)"><path d="M1296.954,976.771a.338.338,0,0,0-.482,0c-.734.586-1.487,1.157-2.2,1.728a1.211,1.211,0,0,1-1.8,0c-.775-.607-1.532-1.217-2.314-1.839q-7.46,5.5-14.9,10.973c.027.031.027.064.047.1q18.633.22,37.258.473c.01-.022.015-.053.033-.068-.481-.367-.952-.723-1.439-1.071Q1304.066,981.919,1296.954,976.771Z"/><path d="M1310.856,962.992c-.011-.037-.027-.05-.031-.069-11.446.032-22.9.1-34.461.146,5.723,4.521,11.371,8.978,17,13.444Q1302.134,969.745,1310.856,962.992Z"/><path d="M1298.455,975.257c5.038,3.653,10.023,7.262,15.034,10.895V963.613C1308.468,967.5,1303.488,971.375,1298.455,975.257Z"/><path d="M1273.891,963.807V986c4.883-3.59,9.7-7.132,14.543-10.7C1283.578,971.459,1278.764,967.657,1273.891,963.807Z"/></g></svg>