<svg height="43.029" viewBox="0 0 43.016 43.029" width="43.016" xmlns="http://www.w3.org/2000/svg"><g fill="#fff" transform="translate(-1117.381 -2331.843)"><path d="m1149.087 2342.049c0 1.866.018 3.732-.005 5.6a4.39 4.39 0 0 1 -2.385 4.021 4.51 4.51 0 0 1 -6.565-3.1 4.966 4.966 0 0 1 -.086-.9q-.008-5.625 0-11.25a4.518 4.518 0 0 1 8.964-.843 5.6 5.6 0 0 1 .077.905c.004 1.854 0 3.711 0 5.567z"/><path d="m1127.571 2343.165c1.865 0 3.731-.008 5.6 0a4.44 4.44 0 0 1 3.637 1.782 4.52 4.52 0 0 1 -3.635 7.26h-11.222a4.5 4.5 0 0 1 -4.465-3.61 4.343 4.343 0 0 1 1.143-4.008 4.41 4.41 0 0 1 3.347-1.425c1.863-.002 3.724.001 5.595.001z"/><path d="m1128.691 2364.683c0-1.866-.008-3.732 0-5.6a4.434 4.434 0 0 1 1.75-3.611 4.494 4.494 0 0 1 5.957.36 4.431 4.431 0 0 1 1.335 3.234q0 5.619 0 11.236a4.5 4.5 0 0 1 -3.609 4.465 4.34 4.34 0 0 1 -4.008-1.142 4.415 4.415 0 0 1 -1.426-3.347c-.003-1.864.001-3.73.001-5.595z"/><path d="m1150.208 2363.562c-1.865 0-3.731.008-5.6 0a4.434 4.434 0 0 1 -3.612-1.749 4.494 4.494 0 0 1 .361-5.957 4.43 4.43 0 0 1 3.233-1.336h11.25a4.5 4.5 0 0 1 4.455 3.622 4.348 4.348 0 0 1 -1.145 4 4.412 4.412 0 0 1 -3.347 1.426c-1.863-.003-3.729-.006-5.595-.006z"/><path d="m1137.735 2340.9h-4.569a4.523 4.523 0 0 1 -4.366-3.564 4.333 4.333 0 0 1 1.22-4.136 4.278 4.278 0 0 1 4.528-1.127 4.356 4.356 0 0 1 3.1 3.444 4.28 4.28 0 0 1 .084.875c.008 1.443 0 2.886 0 4.329z"/><path d="m1151.353 2352.2v-4.566a4.522 4.522 0 0 1 3.567-4.363 4.377 4.377 0 0 1 4.128 1.212 4.29 4.29 0 0 1 1.325 3.544 4.491 4.491 0 0 1 -3.7 4.107 3.966 3.966 0 0 1 -.739.07c-1.484.006-2.968 0-4.452 0-.035.006-.075.002-.129-.004z"/><path d="m1126.425 2354.517v4.569a4.52 4.52 0 0 1 -3.563 4.366 4.4 4.4 0 0 1 -4.141-1.215 4.517 4.517 0 0 1 3.2-7.72h4.508z"/><path d="m1140.043 2365.828h4.563a4.52 4.52 0 0 1 4.371 3.557 4.414 4.414 0 0 1 -1.21 4.143 4.52 4.52 0 0 1 -7.725-3.242q0-2.136 0-4.273z"/></g></svg>